<svg width="29" height="25" viewBox="0 0 29 25" fill="none" xmlns="http://www.w3.org/2000/svg">
<mask id="mask0_9_375" style="mask-type:alpha" maskUnits="userSpaceOnUse" x="0" y="0" width="29" height="25">
<rect width="29" height="25" fill="#D9D9D9"/>
</mask>
<g mask="url(#mask0_9_375)">
<path d="M15.5 22.9167C13.3653 22.9167 11.6233 22.6259 10.274 22.0443C8.92465 21.4627 8.25 20.7118 8.25 19.7917C8.25 19.184 8.54201 18.6545 9.12604 18.2031C9.71007 17.7517 10.5156 17.3958 11.5427 17.1354L12.2375 19.1146C11.8951 19.2014 11.583 19.3099 11.301 19.4401C11.0191 19.5703 10.8278 19.6875 10.7271 19.7917C10.9889 20.0694 11.5931 20.3125 12.5396 20.5208C13.4861 20.7292 14.4729 20.8333 15.5 20.8333C16.5271 20.8333 17.5189 20.7292 18.4755 20.5208C19.4321 20.3125 20.0413 20.0694 20.3031 19.7917C20.2024 19.6875 20.0111 19.5703 19.7292 19.4401C19.4472 19.3099 19.1351 19.2014 18.7927 19.1146L19.4875 17.1354C20.5146 17.3958 21.3151 17.7517 21.8891 18.2031C22.463 18.6545 22.75 19.184 22.75 19.7917C22.75 20.7118 22.0753 21.4627 20.726 22.0443C19.3767 22.6259 17.6347 22.9167 15.5 22.9167ZM15.5 15.9635C15.8625 15.3906 16.2451 14.8655 16.6479 14.388C17.0507 13.9106 17.4434 13.4549 17.826 13.0208C18.5712 12.1875 19.1653 11.4366 19.6083 10.7682C20.0514 10.0998 20.2729 9.27084 20.2729 8.28125C20.2729 7.13542 19.8097 6.1632 18.8833 5.36459C17.9569 4.56598 16.8292 4.16667 15.5 4.16667C14.1708 4.16667 13.0431 4.56598 12.1167 5.36459C11.1903 6.1632 10.7271 7.13542 10.7271 8.28125C10.7271 9.27084 10.9486 10.0998 11.3917 10.7682C11.8347 11.4366 12.4288 12.1875 13.174 13.0208C13.5566 13.4549 13.9493 13.9106 14.3521 14.388C14.7549 14.8655 15.1375 15.3906 15.5 15.9635ZM15.5 19.7917C15.2785 19.7917 15.0771 19.7352 14.8958 19.6224C14.7146 19.5096 14.5837 19.3576 14.5031 19.1667C14.0399 17.934 13.4559 16.901 12.751 16.0677C12.0462 15.2344 11.3615 14.4358 10.6969 13.6719C10.0524 12.908 9.49358 12.1181 9.02031 11.3021C8.54705 10.4861 8.31042 9.47917 8.31042 8.28125C8.31042 6.54514 9.00521 5.07813 10.3948 3.88021C11.7844 2.68229 13.4861 2.08334 15.5 2.08334C17.5139 2.08334 19.2156 2.68229 20.6052 3.88021C21.9948 5.07813 22.6896 6.54514 22.6896 8.28125C22.6896 9.47917 22.458 10.4861 21.9948 11.3021C21.5316 12.1181 20.9677 12.908 20.3031 13.6719C19.6587 14.4358 18.979 15.2344 18.2641 16.0677C17.5491 16.901 16.9601 17.934 16.4969 19.1667C16.4163 19.3576 16.2854 19.5096 16.1042 19.6224C15.9229 19.7352 15.7215 19.7917 15.5 19.7917ZM15.5 10.4948C16.2049 10.4948 16.809 10.2778 17.3125 9.84375C17.816 9.40973 18.0677 8.88889 18.0677 8.28125C18.0677 7.67361 17.816 7.15278 17.3125 6.71875C16.809 6.28473 16.2049 6.06771 15.5 6.06771C14.7951 6.06771 14.191 6.28473 13.6875 6.71875C13.184 7.15278 12.9323 7.67361 12.9323 8.28125C12.9323 8.88889 13.184 9.40973 13.6875 9.84375C14.191 10.2778 14.7951 10.4948 15.5 10.4948Z" fill="#407CE2"/>
</g>
</svg>
