<svg width="36" height="36" viewBox="0 0 36 36" fill="none" xmlns="http://www.w3.org/2000/svg">
<g filter="url(#filter0_b_4_3777)">
<rect width="36" height="36" rx="10" fill="#F5FAFF"/>
<path d="M15 18C15 17.8674 15.0527 17.7402 15.1464 17.6464C15.2402 17.5527 15.3674 17.5 15.5 17.5H20V14.25C20 13.25 18.9441 12.5 18 12.5H13.25C12.786 12.5005 12.3412 12.685 12.0131 13.0131C11.685 13.3412 11.5005 13.786 11.5 14.25V21.75C11.5005 22.214 11.685 22.6588 12.0131 22.9869C12.3412 23.315 12.786 23.4995 13.25 23.5H18.25C18.714 23.4995 19.1588 23.315 19.4869 22.9869C19.815 22.6588 19.9995 22.214 20 21.75V18.5H15.5C15.3674 18.5 15.2402 18.4473 15.1464 18.3536C15.0527 18.2598 15 18.1326 15 18Z" fill="#407CE2"/>
<path d="M24.3534 17.6466L21.8534 15.1466C21.7589 15.0568 21.633 15.0074 21.5026 15.0091C21.3723 15.0108 21.2477 15.0633 21.1555 15.1555C21.0633 15.2477 21.0108 15.3723 21.0091 15.5027C21.0074 15.633 21.0568 15.7589 21.1466 15.8534L22.7928 17.5H20V18.5H22.7928L21.1466 20.1466C21.0982 20.1925 21.0595 20.2477 21.0328 20.3089C21.006 20.37 20.9918 20.4359 20.991 20.5027C20.9901 20.5694 21.0026 20.6356 21.0278 20.6974C21.0529 20.7593 21.0902 20.8154 21.1374 20.8626C21.1846 20.9098 21.2407 20.9471 21.3026 20.9722C21.3644 20.9974 21.4306 21.0099 21.4973 21.009C21.5641 21.0082 21.63 20.994 21.6911 20.9672C21.7523 20.9405 21.8075 20.9018 21.8534 20.8534L24.3534 18.3534C24.4471 18.2597 24.4998 18.1326 24.4998 18C24.4998 17.8675 24.4471 17.7403 24.3534 17.6466Z" fill="#407CE2"/>
</g>
<defs>
<filter id="filter0_b_4_3777" x="-5" y="-5" width="46" height="46" filterUnits="userSpaceOnUse" color-interpolation-filters="sRGB">
<feFlood flood-opacity="0" result="BackgroundImageFix"/>
<feGaussianBlur in="BackgroundImageFix" stdDeviation="2.5"/>
<feComposite in2="SourceAlpha" operator="in" result="effect1_backgroundBlur_4_3777"/>
<feBlend mode="normal" in="SourceGraphic" in2="effect1_backgroundBlur_4_3777" result="shape"/>
</filter>
</defs>
</svg>
