<svg width="20" height="20" viewBox="0 0 20 20" fill="none" xmlns="http://www.w3.org/2000/svg">
<mask id="mask0_9_191" style="mask-type:alpha" maskUnits="userSpaceOnUse" x="0" y="0" width="20" height="20">
<rect width="20" height="20" fill="#D9D9D9"/>
</mask>
<g mask="url(#mask0_9_191)">
<path d="M3.33335 16.6667C2.87502 16.6667 2.48266 16.5035 2.15627 16.1771C1.82988 15.8507 1.66669 15.4583 1.66669 15V5.00001C1.66669 4.54168 1.82988 4.14932 2.15627 3.82293C2.48266 3.49654 2.87502 3.33334 3.33335 3.33334H8.33335L10 5.00001H16.6667C17.125 5.00001 17.5174 5.1632 17.8438 5.48959C18.1702 5.81598 18.3334 6.20834 18.3334 6.66668V9.41668C18.0695 9.30557 17.7952 9.23265 17.5104 9.19793C17.2257 9.1632 16.9445 9.16668 16.6667 9.20834V6.66668H9.31252L7.64585 5.00001H3.33335V15H10.0834L10 15.0833V16.6667H3.33335ZM11.6667 18.3333V15.7708L16.2709 11.1875C16.3959 11.0625 16.5347 10.9722 16.6875 10.9167C16.8403 10.8611 16.9931 10.8333 17.1459 10.8333C17.3125 10.8333 17.4722 10.8646 17.625 10.9271C17.7778 10.9896 17.9167 11.0833 18.0417 11.2083L18.8125 11.9792C18.9236 12.1042 19.0104 12.2431 19.0729 12.3958C19.1354 12.5486 19.1667 12.7014 19.1667 12.8542C19.1667 13.007 19.1389 13.1632 19.0834 13.3229C19.0278 13.4826 18.9375 13.625 18.8125 13.75L14.2292 18.3333H11.6667ZM12.9167 17.0833H13.7084L16.2292 14.5417L15.8542 14.1458L15.4584 13.7708L12.9167 16.2917V17.0833ZM15.8542 14.1458L15.4584 13.7708L16.2292 14.5417L15.8542 14.1458Z" fill="#1C1B1F"/>
</g>
</svg>
