<svg width="15" height="13" viewBox="0 0 15 13" fill="none" xmlns="http://www.w3.org/2000/svg">
<path d="M7.5 12.75C6.95455 12.3359 6.36364 12.0144 5.72727 11.7856C5.09091 11.5567 4.43182 11.4423 3.75 11.4423C3.27273 11.4423 2.80398 11.5022 2.34375 11.6221C1.88352 11.742 1.44318 11.9109 1.02273 12.1288C0.784091 12.2487 0.553977 12.2433 0.332386 12.1125C0.110795 11.9817 0 11.791 0 11.5404V3.66154C0 3.54167 0.03125 3.42724 0.09375 3.31827C0.15625 3.2093 0.25 3.12756 0.375 3.07308C0.897727 2.81154 1.44318 2.61538 2.01136 2.48462C2.57955 2.35385 3.15909 2.28846 3.75 2.28846C4.40909 2.28846 5.05398 2.37019 5.68466 2.53365C6.31534 2.69712 6.92045 2.94231 7.5 3.26923V11.1808C8.07955 10.8321 8.6875 10.5705 9.32386 10.3962C9.96023 10.2218 10.6023 10.1346 11.25 10.1346C11.6591 10.1346 12.0597 10.1673 12.4517 10.2327C12.8438 10.2981 13.2386 10.3962 13.6364 10.5269V2.68077C13.8068 2.73526 13.9744 2.79247 14.1392 2.8524C14.304 2.91234 14.4659 2.9859 14.625 3.07308C14.75 3.12756 14.8438 3.2093 14.9063 3.31827C14.9688 3.42724 15 3.54167 15 3.66154V11.5404C15 11.791 14.8892 11.9817 14.6676 12.1125C14.446 12.2433 14.2159 12.2487 13.9773 12.1288C13.5568 11.9109 13.1165 11.742 12.6562 11.6221C12.196 11.5022 11.7273 11.4423 11.25 11.4423C10.5682 11.4423 9.90909 11.5567 9.27273 11.7856C8.63636 12.0144 8.04545 12.3359 7.5 12.75ZM8.86364 9.48077V3.26923L12.2727 0V6.53846L8.86364 9.48077ZM6.13636 10.5433V4.07019C5.76136 3.91763 5.37216 3.80048 4.96875 3.71875C4.56534 3.63702 4.15909 3.59615 3.75 3.59615C3.32955 3.59615 2.92045 3.63429 2.52273 3.71058C2.125 3.78686 1.73864 3.90128 1.36364 4.05385V10.5433C1.76136 10.4016 2.15625 10.2981 2.5483 10.2327C2.94034 10.1673 3.34091 10.1346 3.75 10.1346C4.15909 10.1346 4.55966 10.1673 4.9517 10.2327C5.34375 10.2981 5.73864 10.4016 6.13636 10.5433Z" fill="#1C1B1F"/>
</svg>
