<svg width="26" height="25" viewBox="0 0 26 25" fill="none" xmlns="http://www.w3.org/2000/svg">
<mask id="mask0_9_381" style="mask-type:alpha" maskUnits="userSpaceOnUse" x="0" y="0" width="26" height="25">
<rect width="26" height="25" fill="#D9D9D9"/>
</mask>
<g mask="url(#mask0_9_381)">
<path d="M12.9999 12.5C11.8083 12.5 10.7881 12.092 9.9395 11.276C9.09089 10.4601 8.66659 9.47916 8.66659 8.33333C8.66659 7.1875 9.09089 6.20659 9.9395 5.39062C10.7881 4.57465 11.8083 4.16666 12.9999 4.16666C14.1916 4.16666 15.2117 4.57465 16.0603 5.39062C16.9089 6.20659 17.3333 7.1875 17.3333 8.33333C17.3333 9.47916 16.9089 10.4601 16.0603 11.276C15.2117 12.092 14.1916 12.5 12.9999 12.5ZM4.33325 20.8333V17.9167C4.33325 17.3264 4.49124 16.7839 4.80721 16.2891C5.12318 15.7943 5.54297 15.4167 6.06659 15.1562C7.18603 14.6181 8.32353 14.2144 9.47909 13.9453C10.6346 13.6762 11.8083 13.5417 12.9999 13.5417C14.1916 13.5417 15.3652 13.6762 16.5208 13.9453C17.6763 14.2144 18.8138 14.6181 19.9333 15.1562C20.4569 15.4167 20.8767 15.7943 21.1926 16.2891C21.5086 16.7839 21.6666 17.3264 21.6666 17.9167V20.8333H4.33325ZM6.49992 18.75H19.4999V17.9167C19.4999 17.7257 19.4503 17.5521 19.351 17.3958C19.2517 17.2396 19.1208 17.1181 18.9583 17.0312C17.9833 16.5625 16.9992 16.2109 16.0062 15.9766C15.0131 15.7422 14.011 15.625 12.9999 15.625C11.9888 15.625 10.9867 15.7422 9.99367 15.9766C9.00061 16.2109 8.01659 16.5625 7.04159 17.0312C6.87909 17.1181 6.74818 17.2396 6.64888 17.3958C6.54957 17.5521 6.49992 17.7257 6.49992 17.9167V18.75ZM12.9999 10.4167C13.5958 10.4167 14.1058 10.2127 14.5301 9.80468C14.9544 9.3967 15.1666 8.90625 15.1666 8.33333C15.1666 7.76041 14.9544 7.26996 14.5301 6.86198C14.1058 6.45399 13.5958 6.25 12.9999 6.25C12.4041 6.25 11.894 6.45399 11.4697 6.86198C11.0454 7.26996 10.8333 7.76041 10.8333 8.33333C10.8333 8.90625 11.0454 9.3967 11.4697 9.80468C11.894 10.2127 12.4041 10.4167 12.9999 10.4167Z" fill="#407CE2"/>
</g>
</svg>
