<svg width="29" height="24" viewBox="0 0 29 24" fill="none" xmlns="http://www.w3.org/2000/svg">
<mask id="mask0_9_378" style="mask-type:alpha" maskUnits="userSpaceOnUse" x="0" y="0" width="29" height="24">
<rect width="29" height="24" fill="#D9D9D9"/>
</mask>
<g mask="url(#mask0_9_378)">
<path d="M8.15629 22C7.25004 22 6.46966 21.7458 5.81514 21.2375C5.16063 20.7292 4.83337 20.1 4.83337 19.35V5.4C4.83337 4.76667 5.07001 4.2 5.54327 3.7C6.01653 3.2 6.6358 2.88334 7.40108 2.75L19.3334 0.800003V16.8L7.88442 18.7C7.70317 18.7333 7.55212 18.8125 7.43129 18.9375C7.31046 19.0625 7.25004 19.2 7.25004 19.35C7.25004 19.5333 7.34067 19.6875 7.52192 19.8125C7.70317 19.9375 7.91462 20 8.15629 20H21.75V4H24.1667V22H8.15629ZM10.875 16.175L16.9167 15.2V3.25L10.875 4.225V16.175ZM8.45837 16.575V4.625L8.00525 4.7C7.78372 4.73334 7.60247 4.8125 7.4615 4.9375C7.32053 5.0625 7.25004 5.21667 7.25004 5.4V16.825C7.35074 16.7917 7.45646 16.7625 7.56723 16.7375C7.67799 16.7125 7.78372 16.6917 7.88442 16.675L8.45837 16.575Z" fill="#1C1B1F"/>
</g>
</svg>
